PathFileType	4	(X/Y/Z)	C:/Users/opensim2020/Desktop/walking_exp_matlab/subject03/subject03_trc/subject03_walking16_run_cyclic.trc	
DataRate	CameraRate	NumFrames	NumMarkers	Units	OrigDataRate	OrigDataStartFrame	OrigNumFrames	
100.00	100.00	4	49	mm	100.00	213	67	
Frame#	Time	RKNE			RTOE			RWRB			LTHI			RELB			RFRM			RUPA			RASI			LTIB			RWRA			RTHI			LSHO			LTOE			RTIB			LWRA			CLAV			LASI			RSHO			RFHD			STRN			LHEE			RFIN			RBHD			LFRM			C7			LWRB			LFIN			LUPA			LBHD			LELB			RANK			RHEE			RBAK			LPSI			T10			LFHD			RPSI			LKNE			LANK			*39			*40			*41			*42			*43			*44			*45			*46			*47			*48			
		X1	Y1	Z1	X2	Y2	Z2	X3	Y3	Z3	X4	Y4	Z4	X5	Y5	Z5	X6	Y6	Z6	X7	Y7	Z7	X8	Y8	Z8	X9	Y9	Z9	X10	Y10	Z10	X11	Y11	Z11	X12	Y12	Z12	X13	Y13	Z13	X14	Y14	Z14	X15	Y15	Z15	X16	Y16	Z16	X17	Y17	Z17	X18	Y18	Z18	X19	Y19	Z19	X20	Y20	Z20	X21	Y21	Z21	X22	Y22	Z22	X23	Y23	Z23	X24	Y24	Z24	X25	Y25	Z25	X26	Y26	Z26	X27	Y27	Z27	X28	Y28	Z28	X29	Y29	Z29	X30	Y30	Z30	X31	Y31	Z31	X32	Y32	Z32	X33	Y33	Z33	X34	Y34	Z34	X35	Y35	Z35	X36	Y36	Z36	X37	Y37	Z37	X38	Y38	Z38	X39	Y39	Z39	X40	Y40	Z40	X41	Y41	Z41	X42	Y42	Z42	X43	Y43	Z43	X44	Y44	Z44	X45	Y45	Z45	X46	Y46	Z46	X47	Y47	Z47	X48	Y48	Z48	X49	Y49	Z49	

20	0.190	347.61423	-1032.12512	419.02692	304.68954	-1454.05322	155.19412	383.27869	-809.34387	980.26154	68.96806	-917.07410	630.20563	491.73596	-981.68127	1076.53735	432.66315	-883.81665	1024.49670	474.55698	-989.37952	1171.77771	346.44000	-929.59601	903.93579	131.25978	-884.91577	273.49625	358.31424	-813.41901	1027.11646	383.09982	-1018.81299	601.95087	62.09419	-961.62677	1355.88721	224.03908	-760.47028	33.57021	355.39746	-1212.93738	356.18488	-0.53996	-986.66138	924.74762	206.81299	-901.19067	1311.86780	116.14460	-940.55212	915.16290	359.94537	-943.00519	1360.60339	284.09439	-940.67523	1602.98401	207.31638	-869.33923	1141.55542	235.82747	-951.87030	43.50664	347.46191	-745.24768	984.32068	266.04617	-1042.28235	1523.66443	-72.23849	-1025.31726	1019.88306	204.36916	-1026.01025	1386.21423	-56.49184	-979.38098	914.67841	-18.28211	-980.18762	828.03320	-63.36303	-1041.42041	1222.09277	137.07681	-1022.38092	1522.14551	-104.61409	-1079.68774	1119.72986	327.73697	-1419.66638	297.14862	275.99609	-1452.71594	336.33380	318.32925	-1072.23267	1232.34363	169.54681	-1098.10413	944.76721	235.90265	-1081.81567	1087.28552	152.49669	-915.80048	1601.90002	319.21704	-1084.41785	952.65771	111.22717	-835.73907	471.61157	195.45407	-912.50842	71.99600																						187.94144	-1019.87683	1633.13257						 
21	0.200	351.33490	-978.87030	410.60422	313.26505	-1400.19812	161.75092	391.89706	-788.77362	957.02631	68.47080	-886.26825	625.74921	491.16333	-957.00006	1069.78857	437.54135	-860.97400	1008.01001	474.31985	-962.45374	1165.47595	347.66544	-901.08868	898.43750	131.89706	-865.58942	269.73804	364.52600	-789.46759	1002.23804	386.01846	-977.72266	593.06677	60.21845	-927.52264	1346.54468	222.85968	-758.15015	33.11857	358.84979	-1158.81287	354.09015	4.31039	-940.76990	907.96729	207.30014	-868.96185	1305.02588	116.60522	-913.69415	910.88916	360.17990	-912.22388	1353.90466	284.05807	-910.80713	1597.21252	209.16595	-838.97687	1133.92664	236.40926	-949.79114	43.92733	357.91235	-723.77094	955.14581	265.58105	-1011.60229	1516.46155	-69.13192	-978.07251	1001.92822	203.30449	-994.73157	1379.95593	-51.56269	-930.18091	899.04889	-14.31159	-927.12445	812.77014	-63.88877	-1000.52112	1205.15234	136.60057	-990.80603	1514.92883	-102.84261	-1033.58521	1100.92383	331.02719	-1367.29443	303.84805	278.42535	-1401.53674	341.99155	316.82806	-1043.00134	1227.69275	171.48015	-1071.04578	938.40369	236.63593	-1052.09851	1082.31433	152.95673	-884.92578	1596.27502	321.22662	-1056.35083	944.05328	111.54003	-809.80023	464.53223	196.08022	-907.92120	71.42451																						187.19331	-989.99005	1625.88367						 
22	0.210	354.80283	-924.64349	404.04742	321.22153	-1342.34241	166.00829	401.30515	-769.59418	933.60730	69.08842	-857.93091	619.62189	490.33276	-932.53119	1062.35132	442.75183	-839.08173	991.42633	473.31961	-935.73676	1157.81567	348.13748	-873.26196	892.08337	133.09415	-845.94037	266.98346	371.10623	-767.48828	976.87842	388.40643	-935.71851	584.28815	58.25682	-893.21954	1336.96899	223.76222	-757.46967	32.93544	362.49808	-1103.12549	352.22516	10.57237	-893.95154	891.26550	207.94322	-837.39276	1297.46936	116.89103	-886.40125	906.58014	360.86942	-882.23395	1347.18188	283.91043	-880.80170	1591.61707	211.13823	-808.96643	1125.86377	237.63817	-949.04224	45.45437	369.40012	-704.70801	927.00763	265.11411	-980.70026	1509.32068	-64.82592	-930.07867	983.64020	201.82164	-963.41113	1373.39258	-45.10543	-879.51563	883.84979	-9.21358	-873.24292	798.00671	-63.89500	-958.54608	1187.29407	136.18732	-959.07605	1507.77673	-100.29035	-986.41644	1081.78918	334.01736	-1312.21558	308.38223	281.17371	-1348.19495	345.32047	314.96252	-1014.04669	1222.14319	173.26874	-1044.27625	932.08124	237.61346	-1022.78503	1076.72278	152.94679	-854.23065	1590.83398	323.29025	-1028.96619	935.03229	112.24025	-784.83459	457.40823	197.24902	-905.39868	72.17301																						186.51169	-960.21942	1618.62244						 
23	0.220	357.51636	-869.36993	400.42627	328.18216	-1281.44836	167.70978	412.07358	-751.99622	911.61035	70.68364	-831.39264	612.87744	490.06628	-907.91272	1054.70386	448.12930	-818.49170	974.84204	471.88776	-909.62000	1149.27209	349.84775	-846.01929	885.47186	133.94823	-830.49756	264.17538	377.83658	-747.71942	952.17590	390.50204	-891.47571	578.52582	56.32624	-858.64795	1327.68359	224.14497	-757.37732	32.42772	365.71994	-1045.93347	350.59158	18.40954	-845.57288	875.49597	208.83795	-805.11176	1290.57813	117.28719	-859.10870	901.90118	361.99170	-852.81763	1340.65564	283.84009	-850.70782	1586.37781	213.03717	-778.63611	1118.15308	237.76378	-948.76514	46.23209	382.95169	-687.39563	901.23480	264.57806	-949.55286	1502.63745	-58.82075	-880.32562	966.45294	199.47891	-931.81781	1367.69458	-36.57975	-827.20728	869.98688	-2.13044	-820.27728	783.94379	-63.01606	-915.68207	1169.31812	135.70859	-927.37451	1501.33618	-96.51455	-938.60077	1062.87122	337.10812	-1255.23975	310.05096	284.20737	-1293.11328	345.92450	312.98599	-985.26385	1216.06836	175.23332	-1017.14282	926.43060	238.85330	-993.95911	1071.27637	152.95444	-823.53174	1585.82129	325.26553	-1001.99292	926.18951	113.96468	-761.38220	451.21945	197.72574	-903.46783	72.45297																						185.94319	-930.61383	1612.01221						 
